# xmcd
#
# Track frame offsets:
#	150
#	15318
#	28686
#	44501
#	53413
#	71077
#	91712
#	101480
#	115312
#	133132
#	145404
#	158618
#
# Disc length: 2338 seconds
#
# Revision: 1
# Processed by: cddbd v1.5.1PL0 Copyright (c) Steve Scherf et al.
# Submitted via: audiograbber 1.83.01
#
DISCID=9809200c
DTITLE=Kenny Rogers - Christmas with Kenny
DYEAR=2003
DGENRE=Country
TTITLE0=The Christmas Song
TTITLE1=White Christmas
TTITLE2=O' Come all Ye Faithful
TTITLE3=Let it Snow, Let it Snow, Let it Snow
TTITLE4=Til the Season Comes 'Round Again
TTITLE5=O Holy Night
TTITLE6=Winter Wonderland
TTITLE7=I'll Be Home for Christmas
TTITLE8=Silver Bells
TTITLE9=My Favorite Things
TTITLE10=The Toy Shoppe
TTITLE11=The Greatest Gift of All (Duet with D.Oarton)
EXTD=
EXTT0=
EXTT1=
EXTT2=
EXTT3=
EXTT4=
EXTT5=
EXTT6=
EXTT7=
EXTT8=
EXTT9=
EXTT10=
EXTT11=
PLAYORDER=
